<?xml version="1.0" encoding="utf-8"?>
<!-- Generator: Adobe Illustrator 22.0.0, SVG Export Plug-In . SVG Version: 6.00 Build 0)  -->
<svg version="1.1" id="Layer_1" xmlns="http://www.w3.org/2000/svg" xmlns:xlink="http://www.w3.org/1999/xlink" x="0px" y="0px"
	 viewBox="0 0 78.3 111.7" style="enable-background:new 0 0 78.3 111.7;" xml:space="preserve">
<style type="text/css">
	.st0{filter:url(#Adobe_OpacityMaskFilter);}
	.st1{fill:#FFFFFF;}
	.st2{mask:url(#SVGID_1_);fill:#E2E2E2;}
	.st3{filter:url(#Adobe_OpacityMaskFilter_1_);}
	.st4{mask:url(#SVGID_2_);fill:#AFAFAF;}
	.st5{filter:url(#Adobe_OpacityMaskFilter_2_);}
	.st6{mask:url(#SVGID_3_);fill:#FFFFFF;}
	.st7{fill:#3A99D8;}
	.st8{fill:#AAAAAA;}
	.st9{fill:#757575;}
	.st10{opacity:0.6;fill:url(#SVGID_4_);}
	.st11{filter:url(#Adobe_OpacityMaskFilter_3_);}
	.st12{mask:url(#SVGID_5_);fill:#E2E2E2;}
	.st13{filter:url(#Adobe_OpacityMaskFilter_4_);}
	.st14{mask:url(#SVGID_6_);fill:#AFAFAF;}
	.st15{filter:url(#Adobe_OpacityMaskFilter_5_);}
	.st16{mask:url(#SVGID_7_);fill:#FFFFFF;}
	.st17{opacity:0.6;fill:url(#SVGID_8_);}
	.st18{filter:url(#Adobe_OpacityMaskFilter_6_);}
	.st19{mask:url(#SVGID_9_);fill:#E2E2E2;}
	.st20{filter:url(#Adobe_OpacityMaskFilter_7_);}
	.st21{mask:url(#SVGID_10_);fill:#AFAFAF;}
	.st22{filter:url(#Adobe_OpacityMaskFilter_8_);}
	.st23{mask:url(#SVGID_11_);fill:#FFFFFF;}
	.st24{opacity:0.6;fill:url(#SVGID_12_);}
	.st25{filter:url(#Adobe_OpacityMaskFilter_9_);}
	.st26{mask:url(#SVGID_13_);fill:#E2E2E2;}
	.st27{filter:url(#Adobe_OpacityMaskFilter_10_);}
	.st28{mask:url(#SVGID_14_);fill:#AFAFAF;}
	.st29{filter:url(#Adobe_OpacityMaskFilter_11_);}
	.st30{mask:url(#SVGID_15_);fill:#FFFFFF;}
	.st31{opacity:0.6;fill:url(#SVGID_16_);}
	.st32{filter:url(#Adobe_OpacityMaskFilter_12_);}
	.st33{mask:url(#SVGID_17_);fill:#E2E2E2;}
	.st34{filter:url(#Adobe_OpacityMaskFilter_13_);}
	.st35{mask:url(#SVGID_18_);fill:#AFAFAF;}
	.st36{filter:url(#Adobe_OpacityMaskFilter_14_);}
	.st37{mask:url(#SVGID_19_);fill:#FFFFFF;}
	.st38{opacity:0.6;fill:url(#SVGID_20_);}
	.st39{filter:url(#Adobe_OpacityMaskFilter_15_);}
	.st40{mask:url(#SVGID_21_);fill:#E2E2E2;}
	.st41{filter:url(#Adobe_OpacityMaskFilter_16_);}
	.st42{mask:url(#SVGID_22_);fill:#AFAFAF;}
	.st43{filter:url(#Adobe_OpacityMaskFilter_17_);}
	.st44{mask:url(#SVGID_23_);fill:#FFFFFF;}
	.st45{opacity:0.6;fill:url(#SVGID_24_);}
	.st46{filter:url(#Adobe_OpacityMaskFilter_18_);}
	.st47{mask:url(#SVGID_25_);fill:#E2E2E2;}
	.st48{filter:url(#Adobe_OpacityMaskFilter_19_);}
	.st49{mask:url(#SVGID_26_);fill:#AFAFAF;}
	.st50{filter:url(#Adobe_OpacityMaskFilter_20_);}
	.st51{mask:url(#SVGID_27_);fill:#FFFFFF;}
	.st52{opacity:0.6;fill:url(#SVGID_28_);}
	.st53{filter:url(#Adobe_OpacityMaskFilter_21_);}
	.st54{mask:url(#SVGID_29_);fill:#E2E2E2;}
	.st55{filter:url(#Adobe_OpacityMaskFilter_22_);}
	.st56{mask:url(#SVGID_30_);fill:#AFAFAF;}
	.st57{filter:url(#Adobe_OpacityMaskFilter_23_);}
	.st58{mask:url(#SVGID_31_);fill:#FFFFFF;}
	.st59{opacity:0.6;fill:url(#SVGID_32_);}
	.st60{filter:url(#Adobe_OpacityMaskFilter_24_);}
	.st61{mask:url(#SVGID_33_);fill:#E2E2E2;}
	.st62{filter:url(#Adobe_OpacityMaskFilter_25_);}
	.st63{mask:url(#SVGID_34_);fill:#AFAFAF;}
	.st64{filter:url(#Adobe_OpacityMaskFilter_26_);}
	.st65{mask:url(#SVGID_35_);fill:#FFFFFF;}
	.st66{opacity:0.6;fill:url(#SVGID_36_);}
	.st67{filter:url(#Adobe_OpacityMaskFilter_27_);}
	.st68{mask:url(#SVGID_37_);fill:#E2E2E2;}
	.st69{filter:url(#Adobe_OpacityMaskFilter_28_);}
	.st70{mask:url(#SVGID_38_);fill:#AFAFAF;}
	.st71{filter:url(#Adobe_OpacityMaskFilter_29_);}
	.st72{mask:url(#SVGID_39_);fill:#FFFFFF;}
	.st73{opacity:0.6;fill:url(#SVGID_40_);}
	.st74{filter:url(#Adobe_OpacityMaskFilter_30_);}
	.st75{mask:url(#SVGID_41_);fill:#E2E2E2;}
	.st76{filter:url(#Adobe_OpacityMaskFilter_31_);}
	.st77{mask:url(#SVGID_42_);fill:#AFAFAF;}
	.st78{filter:url(#Adobe_OpacityMaskFilter_32_);}
	.st79{mask:url(#SVGID_43_);fill:#FFFFFF;}
	.st80{opacity:0.6;fill:url(#SVGID_44_);}
	.st81{filter:url(#Adobe_OpacityMaskFilter_33_);}
	.st82{mask:url(#SVGID_45_);fill:#E2E2E2;}
	.st83{filter:url(#Adobe_OpacityMaskFilter_34_);}
	.st84{mask:url(#SVGID_46_);fill:#AFAFAF;}
	.st85{filter:url(#Adobe_OpacityMaskFilter_35_);}
	.st86{mask:url(#SVGID_47_);fill:#FFFFFF;}
	.st87{opacity:0.6;fill:url(#SVGID_48_);}
	.st88{filter:url(#Adobe_OpacityMaskFilter_36_);}
	.st89{mask:url(#SVGID_49_);fill:#E2E2E2;}
	.st90{filter:url(#Adobe_OpacityMaskFilter_37_);}
	.st91{mask:url(#SVGID_50_);fill:#AFAFAF;}
	.st92{filter:url(#Adobe_OpacityMaskFilter_38_);}
	.st93{mask:url(#SVGID_51_);fill:#FFFFFF;}
	.st94{opacity:0.6;fill:url(#SVGID_52_);}
	.st95{filter:url(#Adobe_OpacityMaskFilter_39_);}
	.st96{mask:url(#SVGID_53_);fill:#E2E2E2;}
	.st97{filter:url(#Adobe_OpacityMaskFilter_40_);}
	.st98{mask:url(#SVGID_54_);fill:#AFAFAF;}
	.st99{filter:url(#Adobe_OpacityMaskFilter_41_);}
	.st100{mask:url(#SVGID_55_);fill:#FFFFFF;}
	.st101{opacity:0.6;fill:url(#SVGID_56_);}
	.st102{filter:url(#Adobe_OpacityMaskFilter_42_);}
	.st103{mask:url(#SVGID_57_);fill:#E2E2E2;}
	.st104{filter:url(#Adobe_OpacityMaskFilter_43_);}
	.st105{mask:url(#SVGID_58_);fill:#AFAFAF;}
	.st106{filter:url(#Adobe_OpacityMaskFilter_44_);}
	.st107{mask:url(#SVGID_59_);fill:#FFFFFF;}
	.st108{opacity:0.6;fill:url(#SVGID_60_);}
	.st109{filter:url(#Adobe_OpacityMaskFilter_45_);}
	.st110{mask:url(#SVGID_61_);fill:#E2E2E2;}
	.st111{filter:url(#Adobe_OpacityMaskFilter_46_);}
	.st112{mask:url(#SVGID_62_);fill:#AFAFAF;}
	.st113{filter:url(#Adobe_OpacityMaskFilter_47_);}
	.st114{mask:url(#SVGID_63_);fill:#FFFFFF;}
	.st115{opacity:0.6;fill:url(#SVGID_64_);}
	.st116{filter:url(#Adobe_OpacityMaskFilter_48_);}
	.st117{mask:url(#SVGID_65_);fill:#E2E2E2;}
	.st118{filter:url(#Adobe_OpacityMaskFilter_49_);}
	.st119{mask:url(#SVGID_66_);fill:#AFAFAF;}
	.st120{filter:url(#Adobe_OpacityMaskFilter_50_);}
	.st121{mask:url(#SVGID_67_);fill:#FFFFFF;}
	.st122{opacity:0.6;fill:url(#SVGID_68_);}
	.st123{filter:url(#Adobe_OpacityMaskFilter_51_);}
	.st124{mask:url(#SVGID_69_);fill:#E2E2E2;}
	.st125{filter:url(#Adobe_OpacityMaskFilter_52_);}
	.st126{mask:url(#SVGID_70_);fill:#AFAFAF;}
	.st127{filter:url(#Adobe_OpacityMaskFilter_53_);}
	.st128{mask:url(#SVGID_71_);fill:#FFFFFF;}
	.st129{opacity:0.6;fill:url(#SVGID_72_);}
	.st130{filter:url(#Adobe_OpacityMaskFilter_54_);}
	.st131{mask:url(#SVGID_73_);fill:#E2E2E2;}
	.st132{filter:url(#Adobe_OpacityMaskFilter_55_);}
	.st133{mask:url(#SVGID_74_);fill:#AFAFAF;}
	.st134{filter:url(#Adobe_OpacityMaskFilter_56_);}
	.st135{mask:url(#SVGID_75_);fill:#FFFFFF;}
	.st136{opacity:0.6;fill:url(#SVGID_76_);}
	.st137{filter:url(#Adobe_OpacityMaskFilter_57_);}
	.st138{mask:url(#SVGID_77_);fill:#E2E2E2;}
	.st139{filter:url(#Adobe_OpacityMaskFilter_58_);}
	.st140{mask:url(#SVGID_78_);fill:#AFAFAF;}
	.st141{filter:url(#Adobe_OpacityMaskFilter_59_);}
	.st142{mask:url(#SVGID_79_);fill:#FFFFFF;}
	.st143{opacity:0.6;fill:url(#SVGID_80_);}
	.st144{fill:#EDEDED;}
	.st145{fill:#CFCFCF;}
</style>
<g>
	<defs>
		<filter id="Adobe_OpacityMaskFilter" filterUnits="userSpaceOnUse" x="0" y="0" width="78.3" height="108.3">
			<feColorMatrix  type="matrix" values="1 0 0 0 0  0 1 0 0 0  0 0 1 0 0  0 0 0 1 0"/>
		</filter>
	</defs>
	<mask maskUnits="userSpaceOnUse" x="0" y="0" width="78.3" height="108.3" id="SVGID_1_">
		<g class="st0">
			<rect x="-20.2" y="-29.5" class="st1" width="116" height="167"/>
			<path d="M76.9,37.1c-2,0-3.6,0.9-3.6,1.9v36.4c0,1.1,1.6,1.9,3.6,1.9h4V37.1H76.9z"/>
			<path d="M1.5,37.1c2.2,0,3.9,1,3.9,2.1V79c0,1.2-1.8,2.1-3.9,2.1h-4.3v-44H1.5z"/>
		</g>
	</mask>
	<path class="st2" d="M74.1,108.3H4.2c-2.3,0-4.2-1.9-4.2-4.2V4.2C0,1.9,1.9,0,4.2,0h69.9c2.3,0,4.2,1.9,4.2,4.2v99.9
		C78.3,106.4,76.4,108.3,74.1,108.3z"/>
	<defs>
		<filter id="Adobe_OpacityMaskFilter_1_" filterUnits="userSpaceOnUse" x="0" y="1.8" width="78.3" height="108.3">
			<feColorMatrix  type="matrix" values="1 0 0 0 0  0 1 0 0 0  0 0 1 0 0  0 0 0 1 0"/>
		</filter>
	</defs>
	<mask maskUnits="userSpaceOnUse" x="0" y="1.8" width="78.3" height="108.3" id="SVGID_2_">
		<g class="st3">
			<rect x="-20.2" y="-27.7" class="st1" width="116" height="167"/>
			<path d="M76.9,38.9c-2,0-3.6,0.9-3.6,2v36.6c0,1.1,1.6,2,3.6,2h4V38.9H76.9z"/>
			<path d="M1.5,38.9c2.2,0,4,1,4,2.2l0,40.4c0,1.2-1.8,2.2-4,2.2h-4.4V38.9H1.5z"/>
		</g>
	</mask>
	<path class="st4" d="M74.1,110.1H4.2c-2.3,0-4.2-1.9-4.2-4.2V6c0-2.3,1.9-4.2,4.2-4.2h69.9c2.3,0,4.2,1.9,4.2,4.2v99.9
		C78.3,108.2,76.4,110.1,74.1,110.1z"/>
	<defs>
		<filter id="Adobe_OpacityMaskFilter_2_" filterUnits="userSpaceOnUse" x="0" y="3.4" width="78.3" height="108.3">
			<feColorMatrix  type="matrix" values="1 0 0 0 0  0 1 0 0 0  0 0 1 0 0  0 0 0 1 0"/>
		</filter>
	</defs>
	<mask maskUnits="userSpaceOnUse" x="0" y="3.4" width="78.3" height="108.3" id="SVGID_3_">
		<g class="st5">
			<rect x="-20.2" y="-26.1" class="st1" width="116" height="167"/>
			<path d="M77,40.5c-1.7,0-3,0.7-3,1.6V73c0,0.9,1.4,1.6,3,1.6h3.4V40.5H77z"/>
			<path d="M1.4,40.5c1.7,0,3,0.7,3,1.6V73c0,0.9-1.4,1.6-3,1.6H-2V40.5H1.4z"/>
		</g>
	</mask>
	<path class="st6" d="M74.1,111.7H4.2c-2.3,0-4.2-1.9-4.2-4.2V7.6c0-2.3,1.9-4.2,4.2-4.2h69.9c2.3,0,4.2,1.9,4.2,4.2v99.9
		C78.3,109.8,76.4,111.7,74.1,111.7z"/>
	<g>
		<path class="st7" d="M32.1,70.7v7.2c0,5.5,2.4,7.5,6.3,7.5c3.9,0,6.3-2,6.3-7.5V60.8c0-5.5-2.4-7.7-6.3-7.7
			c-3.9,0-6.3,2.1-6.3,7.7v2.3H20.5l2.2-45h32.2v11.1H33.7l-1,18.5c2.2-3.7,5.8-5.7,10.6-5.7c9,0,13.5,6.3,13.5,17.7v17.3
			c0,12.4-6.2,19.5-18.2,19.5s-18.2-7.1-18.2-19.5v-6.4H32.1z"/>
	</g>
	<rect x="4.3" y="55.4" class="st8" width="69.6" height="4.2"/>
	<rect x="4.3" y="57.8" class="st9" width="69.6" height="1.8"/>
	<path class="st9" d="M3.2,71.7V43.3c0-0.8-0.7-1.5-1.5-1.5H0v31.4h1.7C2.5,73.2,3.2,72.6,3.2,71.7z"/>
	<path class="st9" d="M76.6,41.8c-0.8,0-1.5,0.7-1.5,1.5v28.4c0,0.8,0.7,1.5,1.5,1.5h1.7V41.8H76.6z"/>
	<linearGradient id="SVGID_4_" gradientUnits="userSpaceOnUse" x1="39.142" y1="115.2198" x2="39.142" y2="53.5449">
		<stop  offset="0" style="stop-color:#FFFFFF"/>
		<stop  offset="1" style="stop-color:#FFFFFF;stop-opacity:0"/>
	</linearGradient>
	<path class="st10" d="M1.8,59.6v47.9c0,1.3,1.1,2.4,2.4,2.4h69.9c1.3,0,2.4-1.1,2.4-2.4V59.6H1.8z"/>
</g>
</svg>
